<?xml version="1.0" encoding="UTF-8"?>
<!DOCTYPE svg PUBLIC "-//W3C//DTD SVG 1.1//EN" "http://www.w3.org/Graphics/SVG/1.1/DTD/svg11.dtd">
<!-- Creator: CorelDRAW -->
<svg xmlns="http://www.w3.org/2000/svg" xml:space="preserve" width="512px" height="437px" version="1.1" shape-rendering="geometricPrecision" text-rendering="geometricPrecision" image-rendering="optimizeQuality" fill-rule="evenodd" clip-rule="evenodd"
viewBox="0 0 512 436.85"
 xmlns:xlink="http://www.w3.org/1999/xlink"
 xmlns:xodm="http://www.corel.com/coreldraw/odm/2003">
 <g id="Layer_x0020_1">
  <metadata id="CorelCorpID_0Corel-Layer"/>
  <path fill="#257FC4" fill-rule="nonzero" d="M382.31 86.17c46.02,-7.38 83.26,12.7 105.95,44.3 9.75,13.6 16.75,29.29 20.51,45.76l0 0.05c3.76,16.48 4.32,33.85 1.23,50.82 -8.07,44.22 -40.5,85.33 -105.31,100.37l-1.7 0.4 -106.32 0 42.67 -51.95 -56.74 0 54.8 -81.73 -108.39 1.01 -7.67 0.07 -38.1 132.6 -86.82 0 -1.34 -0.17c-37.86,-4.82 -65.78,-26.16 -81.27,-53.69 -8.55,-15.2 -13.28,-32.37 -13.77,-49.74 -0.49,-17.41 3.33,-35.01 11.86,-51.02 13.88,-26.03 39.98,-47.65 80,-56.99 9.04,-36.49 28.56,-64.58 53.65,-84.05 23.35,-18.12 51.49,-28.66 80.45,-31.45 28.81,-2.79 58.51,2.12 85.12,14.89 29.27,14.04 54.75,37.49 71.19,70.52z"/>
  <path fill="#88DFF3" d="M390.57 99.6c116.13,-11.81 162.76,178.63 10.91,213.88l-93 0 30.86 -37.56 -56.74 0 54.8 -81.73 -108.39 1.01 -7.67 0.07 -33.97 118.21 -90.5 0c-101.79,-12.95 -120.51,-162.64 7.04,-185.02 25.93,-136.47 205.72,-152.49 264.72,-37.52 -7.42,2.69 -14.61,6.12 -21.46,10.18 -15.13,8.96 -28.7,21.07 -39.64,35.32 -2.37,3.1 -1.77,7.54 1.33,9.91 3.1,2.36 7.53,1.77 9.9,-1.33 9.83,-12.81 22.02,-23.69 35.6,-31.74 11.3,-6.69 23.56,-11.42 36.21,-13.68z"/>
  <path fill="#A3EDFD" d="M390.99 99.52c28.71,-2.8 53.15,6.77 71.37,23.29 16.03,54.1 -7.07,121.58 -91.42,141.17l-80.33 0 46.79 -69.79 -108.39 1.01 -7.67 0.07 -19.74 68.71 -135.27 0c-19.77,-2.52 -36.38,-10.2 -49.42,-21.1 -11.21,-46.8 13.79,-101.57 87,-114.41 25.93,-136.48 205.71,-152.5 264.71,-37.53 -7.41,2.69 -14.6,6.12 -21.45,10.18 -15.13,8.96 -28.7,21.07 -39.64,35.32 -2.37,3.1 -1.77,7.54 1.33,9.91 3.1,2.36 7.53,1.77 9.9,-1.33 9.83,-12.81 22.02,-23.69 35.6,-31.74 11.42,-6.76 23.83,-11.53 36.63,-13.76z"/>
  <path fill="white" d="M324.44 82c0.85,-44.75 -107.25,-71.9 -151.95,-1.41 48.42,-28.01 106.52,-27.9 151.95,1.41z"/>
  <polygon fill="#FFCD52" points="318.09,204.6 229.09,205.43 196.57,318.62 240.69,319.04 193.9,436.85 317.66,286.19 263.4,286.19 "/>
  <polygon fill="#F7C043" points="254.4,205.75 229.69,206.21 198.52,318 240.95,318.96 193.9,436.85 257.04,307.78 219.41,301.36 "/>
 </g>
</svg>
