<svg xmlns="http://www.w3.org/2000/svg" shape-rendering="geometricPrecision" text-rendering="geometricPrecision" image-rendering="optimizeQuality" fill-rule="evenodd" clip-rule="evenodd" viewBox="0 0 512 403.53"><path fill="#257FC4" fill-rule="nonzero" d="M382.63 84.27c45.61-6.16 82.52 14.18 105.21 45.8 9.92 13.83 17.04 29.81 20.88 46.62 3.82 16.74 4.39 34.41 1.25 51.68-8.23 45.06-41.14 86.91-106.85 102.17l-2.19.5H99.01l-1.73-.22c-38.72-4.93-67.29-26.77-83.16-54.97C5.38 260.3.54 242.73.04 224.94c-.5-17.85 3.42-35.9 12.18-52.34 13.89-26.06 39.67-47.79 78.9-57.61 9.41-35.61 28.83-63.16 53.65-82.42C168.37 14.25 196.83 3.59 226.1.76c29.09-2.81 59.09 2.16 85.97 15.05 28.77 13.81 53.91 36.57 70.56 68.46z"/><path fill="#88DFF3" d="M372.22 105.1c.17 0 .42-.1.88-.21 124.99-30.72 181.59 171.46 25.89 207.61H99.6C-.45 299.76-18.84 152.65 106.52 130.65 131.69-1.84 304.38-18.81 364.5 89.68c-4.92 1.71-9.73 3.74-14.42 6.07-12.67 6.28-24.45 14.73-34.74 24.84-3.36 3.3-3.4 8.71-.1 12.06 3.3 3.36 8.71 3.41 12.07.1 9-8.83 19.28-16.21 30.33-21.69 4.73-2.35 9.61-4.35 14.58-5.96z"/><path fill="#A3EDFD" d="M372.22 105.1c.17 0 .42-.1.88-.21 34.99-8.6 64.61 1.06 85.72 20.21 15.76 53.17-6.94 119.5-89.85 138.74H69.58c-19.42-2.47-35.76-10.02-48.57-20.73-11.02-46 13.56-99.84 85.51-112.46C131.69-1.84 304.38-18.81 364.49 89.68a124.21 124.21 0 00-14.41 6.07c-12.67 6.28-24.45 14.73-34.74 24.84-3.36 3.3-3.4 8.71-.1 12.06 3.3 3.36 8.71 3.41 12.07.1 9-8.83 19.28-16.21 30.33-21.69 4.73-2.35 9.61-4.35 14.58-5.96z"/><path fill="#fff" d="M323.27 84.98c.83-43.97-105.41-70.66-149.35-1.38 47.59-27.53 104.7-27.42 149.35 1.38z"/><path fill="#E10706" fill-rule="nonzero" d="M256 169.65c64.58 0 123.06 26.18 165.38 68.5 42.32 42.32 68.5 100.8 68.5 165.38h-36.8c0-54.42-22.06-103.69-57.72-139.35-35.67-35.67-84.94-57.73-139.36-57.73-54.42 0-103.69 22.06-139.36 57.73-35.66 35.66-57.72 84.93-57.72 139.35h-36.8c0-64.58 26.18-123.06 68.5-165.38 42.32-42.32 100.8-68.5 165.38-68.5z"/><path fill="#FD5320" fill-rule="nonzero" d="M256 205.98c54.55 0 103.94 22.12 139.69 57.86 35.74 35.75 57.86 85.14 57.86 139.69h-31.09c0-45.96-18.63-87.58-48.75-117.71-30.13-30.12-71.75-48.75-117.71-48.75-45.97 0-87.59 18.63-117.71 48.75-30.12 30.13-48.75 71.75-48.75 117.71H58.45c0-54.55 22.11-103.94 57.86-139.69 35.75-35.74 85.14-57.86 139.69-57.86z"/><path fill="#FDEE21" fill-rule="nonzero" d="M256 236.68c46.07 0 87.79 18.67 117.98 48.87 30.2 30.19 48.88 71.91 48.88 117.98H396.6c0-38.82-15.74-73.98-41.18-99.42-25.44-25.44-60.6-41.18-99.42-41.18-38.83 0-73.98 15.74-99.42 41.18-25.44 25.44-41.18 60.6-41.18 99.42H89.14c0-46.07 18.68-87.79 48.87-117.98 30.2-30.2 71.91-48.87 117.99-48.87z"/><path fill="#3AB54A" fill-rule="nonzero" d="M256 262.6c38.92 0 74.15 15.77 99.65 41.28 25.51 25.5 41.28 60.74 41.28 99.65h-22.17c0-32.79-13.3-62.48-34.79-83.97-21.49-21.49-51.18-34.79-83.97-34.79s-62.49 13.3-83.98 34.79c-21.48 21.49-34.78 51.18-34.78 83.97h-22.17c0-38.91 15.77-74.15 41.27-99.65 25.51-25.51 60.74-41.28 99.66-41.28z"/><path fill="#29AAE3" fill-rule="nonzero" d="M256 284.49c32.87 0 62.63 13.32 84.17 34.87 21.55 21.54 34.87 51.3 34.87 84.17h-18.73c0-27.7-11.23-52.77-29.38-70.93-18.16-18.15-43.23-29.38-70.93-29.38-27.7 0-52.78 11.23-70.93 29.38-18.15 18.16-29.38 43.23-29.38 70.93h-18.73c0-32.87 13.32-62.63 34.87-84.17 21.54-21.55 51.3-34.87 84.17-34.87z"/><path fill="#2E3192" fill-rule="nonzero" d="M256 302.99c27.77 0 52.9 11.25 71.09 29.45 18.2 18.19 29.45 43.32 29.45 71.09h-15.82c0-23.4-9.48-44.57-24.81-59.91-15.33-15.33-36.51-24.81-59.91-24.81s-44.58 9.48-59.91 24.81c-15.33 15.34-24.82 36.51-24.82 59.91h-15.81c0-27.77 11.25-52.9 29.45-71.09 18.19-18.2 43.32-29.45 71.09-29.45z"/><path fill="#662D91" fill-rule="nonzero" d="M256 318.61c23.45 0 44.68 9.5 60.05 24.87 15.37 15.37 24.87 36.6 24.87 60.05h-13.36c0-19.76-8.01-37.65-20.96-50.6-12.95-12.95-30.84-20.96-50.6-20.96s-37.65 8.01-50.6 20.96c-12.95 12.95-20.96 30.84-20.96 50.6h-13.37c0-23.45 9.51-44.68 24.88-60.05 15.37-15.37 36.6-24.87 60.05-24.87z"/></svg>