<svg xmlns="http://www.w3.org/2000/svg" shape-rendering="geometricPrecision" text-rendering="geometricPrecision" image-rendering="optimizeQuality" fill-rule="evenodd" clip-rule="evenodd" viewBox="0 0 512 394.25"><path fill="#FFC106" fill-rule="nonzero" d="M284.02 14.56c-1.62-6.19 2.11-12.55 8.3-14.18 6.2-1.62 12.55 2.09 14.18 8.3l7.51 28.87c1.63 6.2-2.1 12.55-8.3 14.18-6.2 1.62-12.55-2.09-14.17-8.3l-7.52-28.87zm79.26 61.61c27.67 7.63 49.62 25.75 62.76 48.89 13.12 23.15 17.43 51.3 9.8 78.97-6.73 24.4-21.62 44.34-40.91 57.72-.69-8.68-2.51-17.24-5.36-25.37-4.83-13.8-12.63-26.45-22.89-36.56-17.62-17.37-42.25-27.31-71.41-23.06-11.94-23.35-29.76-40.42-50.29-51.32 9.41-16.77 23.14-30.28 39.33-39.48 23.15-13.12 51.3-17.43 78.97-9.79zm8.54-65.74c1.71-6.2 8.12-9.84 14.33-8.13 6.19 1.71 9.84 8.12 8.12 14.32l-7.93 28.76c-1.71 6.2-8.12 9.84-14.32 8.12-6.2-1.71-9.84-8.12-8.13-14.32l7.93-28.75zm78.15 40.37c4.55-4.49 11.89-4.45 16.4.09 4.49 4.55 4.46 11.89-.09 16.4l-21.26 20.93c-4.54 4.5-11.88 4.46-16.39-.09-4.5-4.55-4.46-11.89.09-16.39l21.25-20.94zm47.47 73.97c6.19-1.62 12.55 2.11 14.17 8.3 1.64 6.2-2.08 12.55-8.29 14.18l-28.87 7.51c-6.2 1.63-12.54-2.1-14.18-8.3-1.62-6.19 2.09-12.55 8.3-14.18l28.87-7.51zm4.13 87.8c6.21 1.71 9.84 8.12 8.13 14.33-1.71 6.19-8.12 9.83-14.32 8.12l-28.76-7.93c-6.2-1.71-9.84-8.12-8.12-14.32 1.71-6.2 8.12-9.84 14.32-8.13l28.75 7.93zm-40.37 78.15c4.49 4.55 4.45 11.89-.09 16.4-4.55 4.49-11.89 4.46-16.4-.09l-20.93-21.26c-4.5-4.54-4.46-11.88.09-16.39 4.55-4.5 11.89-4.46 16.4.09l20.93 21.25zM210.05 62.03c-4.49-4.55-4.45-11.89.1-16.4 4.54-4.49 11.88-4.46 16.39.09l20.93 21.26c4.5 4.54 4.46 11.88-.09 16.39-4.54 4.5-11.89 4.46-16.39-.09l-20.94-21.25z"/><path fill="#FFD205" fill-rule="nonzero" d="M363.28 76.17c22.11 6.1 40.57 18.9 53.8 35.6l-108.64 64.02c-4.28 0-8.67.32-13.17.97-11.94-23.35-29.76-40.42-50.29-51.32 9.41-16.77 23.14-30.28 39.33-39.48 23.15-13.12 51.3-17.43 78.97-9.79z"/><path fill="#257FC4" fill-rule="nonzero" d="M295.27 176.76c29.16-4.25 53.79 5.69 71.41 23.06 10.26 10.11 18.06 22.76 22.89 36.56 4.8 13.7 6.69 28.59 5.16 43.29-3.09 29.69-19.87 58.54-54.28 75.42-21.23 10.41-30.41 10.4-51.03 10.38l-2.79-.01v.05H94.85v-.05l-4.7.02c-13.65.09-23.41.15-38.31-5.93-20.29-8.27-35.18-23.4-43.67-41.23-6.5-13.64-9.24-28.94-7.79-44 1.46-15.18 7.19-30.07 17.63-42.79 11.62-14.17 28.98-25.52 52.6-31.27 7.14-27.79 22.17-49.24 41.42-64.18 18.13-14.07 39.99-22.26 62.47-24.43 22.37-2.16 45.42 1.66 66.08 11.56 22.38 10.74 41.9 28.55 54.69 53.55z"/><path fill="#88DFF3" d="M301.96 188.95c80.38-6.7 116.19 113.75 32.85 154.62-19.45 9.54-27.59 9.06-48.18 9.06H94.85c-14.77 0-23.95.8-38.18-5-60.22-24.56-64.16-120.88 24.66-136.46 19.68-103.57 155.23-116.4 201.37-30.65-6.01 2.12-11.81 4.86-17.34 8.13-11.68 6.92-22.15 16.27-30.6 27.28-2.16 2.82-1.61 6.85 1.2 9 2.82 2.16 6.86 1.61 9.01-1.2 7.44-9.69 16.66-17.92 26.93-24.01 9.35-5.53 19.55-9.29 30.06-10.77z"/><path fill="#A3EDFD" d="M302.26 188.91c21.34-1.7 39.52 5.58 53.15 17.93 12.26 41.37-5.41 92.97-69.91 107.94H52.6c-15.12-1.92-27.82-7.8-37.79-16.13-8.57-35.78 10.55-77.66 66.52-87.48 19.68-103.58 155.23-116.41 201.37-30.65-6 2.12-11.81 4.86-17.34 8.13-11.68 6.92-22.15 16.27-30.6 27.28-2.16 2.82-1.61 6.85 1.2 9 2.82 2.16 6.86 1.61 9.01-1.2 7.44-9.69 16.66-17.92 26.93-24.01 9.44-5.58 19.75-9.37 30.36-10.81z"/><path fill="#fff" d="M249.95 175.64c.65-34.22-82-54.98-116.18-1.08 37.02-21.42 81.45-21.33 116.18 1.08z"/><path fill="#E10706" fill-rule="nonzero" d="M197.62 255.27c38.38 0 73.13 15.56 98.28 40.71 25.14 25.15 40.7 59.89 40.7 98.27h-21.87c0-32.34-13.11-61.62-34.3-82.81-21.19-21.19-50.47-34.3-82.81-34.3s-61.62 13.11-82.81 34.3c-21.19 21.19-34.3 50.47-34.3 82.81H58.64c0-38.38 15.56-73.12 40.71-98.27 25.15-25.15 59.89-40.71 98.27-40.71z"/><path fill="#FD5320" fill-rule="nonzero" d="M197.62 276.86c32.42 0 61.77 13.14 83.01 34.38 21.24 21.25 34.38 50.6 34.38 83.01h-18.47c0-27.31-11.07-52.05-28.97-69.94-17.9-17.9-42.64-28.98-69.95-28.98-27.31 0-52.05 11.08-69.95 28.98-17.89 17.89-28.97 42.63-28.97 69.94H80.23c0-32.41 13.14-61.76 34.38-83.01 21.24-21.24 50.59-34.38 83.01-34.38z"/><path fill="#FDEE21" fill-rule="nonzero" d="M197.62 295.1c27.38 0 52.17 11.1 70.11 29.04 17.95 17.94 29.04 42.73 29.04 70.11h-15.6c0-23.07-9.35-43.96-24.47-59.08-15.12-15.12-36.01-24.47-59.08-24.47s-43.96 9.35-59.08 24.47c-15.12 15.12-24.47 36.01-24.47 59.08h-15.6c0-27.38 11.1-52.17 29.04-70.11 17.94-17.94 42.73-29.04 70.11-29.04z"/><path fill="#3AB54A" fill-rule="nonzero" d="M197.62 310.5c23.13 0 44.07 9.38 59.22 24.53 15.16 15.16 24.53 36.1 24.53 59.22h-13.18c0-19.49-7.9-37.13-20.67-49.9-12.77-12.77-30.41-20.67-49.9-20.67s-37.13 7.9-49.9 20.67c-12.77 12.77-20.67 30.41-20.67 49.9h-13.18c0-23.12 9.38-44.06 24.53-59.22 15.16-15.15 36.09-24.53 59.22-24.53z"/><path fill="#29AAE3" fill-rule="nonzero" d="M197.62 323.52c19.53 0 37.22 7.91 50.02 20.71 12.8 12.8 20.72 30.49 20.72 50.02h-11.13c0-16.46-6.67-31.36-17.46-42.15-10.79-10.78-25.69-17.46-42.15-17.46-16.46 0-31.36 6.68-42.15 17.46-10.78 10.79-17.46 25.69-17.46 42.15h-11.13c0-19.53 7.92-37.22 20.72-50.02 12.8-12.8 30.49-20.71 50.02-20.71z"/><path fill="#2E3192" fill-rule="nonzero" d="M197.62 334.51c16.5 0 31.44 6.68 42.25 17.49 10.81 10.82 17.5 25.75 17.5 42.25h-9.4c0-13.9-5.64-26.49-14.75-35.6-9.11-9.11-21.7-14.75-35.6-14.75-13.9 0-26.49 5.64-35.6 14.75-9.11 9.11-14.75 21.7-14.75 35.6h-9.4c0-16.5 6.69-31.43 17.5-42.25 10.81-10.81 25.75-17.49 42.25-17.49z"/><path fill="#662D91" fill-rule="nonzero" d="M197.62 343.79c13.94 0 26.55 5.64 35.68 14.78 9.14 9.13 14.79 21.75 14.79 35.68h-7.94c0-11.74-4.76-22.37-12.46-30.07-7.7-7.69-18.33-12.45-30.07-12.45-11.74 0-22.37 4.76-30.07 12.45-7.69 7.7-12.45 18.33-12.45 30.07h-7.95c0-13.93 5.65-26.55 14.79-35.68 9.13-9.14 21.74-14.78 35.68-14.78z"/></svg>