<svg width="1080" height="1395" viewBox="0 0 1080 1395" fill="none" xmlns="http://www.w3.org/2000/svg">
<g filter="url(#filter0_dd_1_88)">
<circle cx="540.5" cy="731.286" r="391.5" fill="#F3F8FF"/>
</g>
<g filter="url(#filter1_dii_1_88)">
<circle cx="540.499" cy="736.286" r="252.5" fill="#F3F9FF"/>
</g>
<g filter="url(#filter2_dii_1_88)">
<circle cx="540.499" cy="736.497" r="170.5" fill="#F3F9FF"/>
<circle cx="540.499" cy="736.497" r="163" stroke="#E0EDFF" stroke-width="15"/>
</g>
<path d="M644.027 675.267C635.867 675.267 629.051 681.987 629.051 690.243C629.051 698.595 635.867 705.315 644.027 705.315C652.379 705.315 659.099 698.595 659.099 690.243C659.099 681.987 652.379 675.267 644.027 675.267ZM644.027 699.555C639.035 699.555 634.811 695.427 634.811 690.243C634.811 685.155 639.035 681.027 644.027 681.027C649.211 681.027 653.339 685.155 653.339 690.243C653.339 695.427 649.211 699.555 644.027 699.555Z" fill="#47515C"/>
<path d="M533.694 446.457C531.729 446.457 530.042 445.96 528.634 444.965C527.234 443.963 526.157 442.519 525.401 440.634C524.653 438.741 524.279 436.462 524.279 433.797C524.287 431.132 524.665 428.865 525.413 426.996C526.169 425.119 527.246 423.687 528.646 422.7C530.054 421.714 531.737 421.221 533.694 421.221C535.65 421.221 537.333 421.714 538.741 422.7C540.149 423.687 541.226 425.119 541.974 426.996C542.73 428.873 543.108 431.14 543.108 433.797C543.108 436.47 542.73 438.753 541.974 440.646C541.226 442.531 540.149 443.971 538.741 444.965C537.341 445.96 535.658 446.457 533.694 446.457ZM533.694 442.722C535.221 442.722 536.426 441.97 537.309 440.467C538.2 438.956 538.645 436.732 538.645 433.797C538.645 431.856 538.442 430.225 538.037 428.905C537.631 427.585 537.058 426.59 536.319 425.922C535.579 425.246 534.704 424.908 533.694 424.908C532.174 424.908 530.973 425.664 530.09 427.175C529.207 428.678 528.762 430.886 528.754 433.797C528.746 435.746 528.941 437.385 529.338 438.713C529.744 440.041 530.317 441.044 531.057 441.72C531.796 442.388 532.675 442.722 533.694 442.722ZM552.393 437.759C549.537 437.759 547.152 440.111 547.152 443.001C547.152 445.924 549.537 448.276 552.393 448.276C555.316 448.276 557.668 445.924 557.668 443.001C557.668 440.111 555.316 437.759 552.393 437.759ZM552.393 446.26C550.646 446.26 549.168 444.815 549.168 443.001C549.168 441.22 550.646 439.775 552.393 439.775C554.208 439.775 555.652 441.22 555.652 443.001C555.652 444.815 554.208 446.26 552.393 446.26Z" fill="#333333"/>
<path opacity="0.5" d="M372.586 491.689C371.421 492.362 370.264 492.762 369.115 492.89C367.972 493.014 366.929 492.873 365.985 492.467C365.044 492.052 364.281 491.384 363.695 490.462L366.361 488.923C366.692 489.418 367.123 489.766 367.653 489.965C368.185 490.156 368.765 490.206 369.392 490.116C370.019 490.025 370.643 489.8 371.266 489.441C371.951 489.046 372.487 488.577 372.877 488.036C373.271 487.491 373.496 486.92 373.551 486.322C373.603 485.719 373.467 485.137 373.143 484.577C372.807 483.994 372.361 483.569 371.806 483.301C371.254 483.023 370.619 482.922 369.9 482.998C369.187 483.07 368.429 483.338 367.625 483.802L366.157 484.65L364.922 482.511L366.39 481.663C367.035 481.29 367.534 480.848 367.887 480.335C368.245 479.818 368.444 479.274 368.483 478.701C368.518 478.122 368.374 477.552 368.051 476.992C367.741 476.454 367.349 476.058 366.877 475.802C366.408 475.538 365.887 475.42 365.315 475.448C364.748 475.473 364.168 475.657 363.574 476C363.008 476.327 362.539 476.737 362.168 477.231C361.799 477.716 361.573 478.239 361.489 478.8C361.403 479.355 361.502 479.906 361.786 480.451L359.248 481.916C358.734 480.96 358.534 479.974 358.649 478.957C358.769 477.937 359.149 476.975 359.789 476.07C360.428 475.165 361.28 474.405 362.344 473.791C363.458 473.147 364.546 472.81 365.607 472.778C366.67 472.738 367.63 472.95 368.486 473.413C369.348 473.874 370.023 474.533 370.51 475.391C371.078 476.361 371.283 477.344 371.127 478.34C370.975 479.333 370.514 480.206 369.743 480.961L369.821 481.097C371.077 480.606 372.235 480.548 373.297 480.923C374.365 481.295 375.212 482.032 375.84 483.133C376.398 484.086 376.627 485.097 376.527 486.166C376.433 487.231 376.051 488.248 375.38 489.216C374.706 490.179 373.775 491.003 372.586 491.689ZM388.709 482.38C387.544 483.053 386.386 483.454 385.238 483.581C384.095 483.705 383.051 483.565 382.108 483.159C381.167 482.744 380.404 482.075 379.818 481.153L382.484 479.615C382.815 480.11 383.246 480.457 383.776 480.657C384.308 480.847 384.888 480.897 385.515 480.807C386.142 480.717 386.766 480.492 387.389 480.132C388.073 479.737 388.61 479.269 388.999 478.727C389.394 478.182 389.619 477.611 389.674 477.014C389.725 476.411 389.589 475.829 389.266 475.269C388.93 474.686 388.484 474.26 387.929 473.992C387.377 473.715 386.741 473.614 386.023 473.689C385.31 473.761 384.552 474.029 383.748 474.493L382.28 475.341L381.045 473.202L382.513 472.354C383.158 471.982 383.657 471.539 384.01 471.026C384.368 470.51 384.567 469.965 384.606 469.392C384.641 468.813 384.497 468.244 384.174 467.683C383.863 467.146 383.472 466.749 383 466.494C382.531 466.229 382.01 466.111 381.438 466.14C380.871 466.165 380.291 466.349 379.697 466.692C379.131 467.019 378.662 467.429 378.291 467.922C377.922 468.407 377.696 468.93 377.612 469.491C377.526 470.047 377.624 470.597 377.909 471.142L375.371 472.607C374.857 471.652 374.657 470.665 374.772 469.649C374.892 468.628 375.272 467.666 375.911 466.761C376.551 465.856 377.403 465.097 378.466 464.482C379.581 463.839 380.669 463.501 381.73 463.47C382.793 463.429 383.753 463.641 384.609 464.105C385.471 464.566 386.146 465.225 386.633 466.082C387.201 467.052 387.406 468.035 387.249 469.031C387.098 470.024 386.637 470.898 385.865 471.652L385.944 471.788C387.199 471.297 388.358 471.239 389.42 471.615C390.487 471.987 391.335 472.723 391.963 473.825C392.521 474.778 392.75 475.788 392.65 476.857C392.556 477.922 392.174 478.939 391.503 479.907C390.829 480.87 389.898 481.694 388.709 482.38ZM404.862 473.123C403.517 473.891 402.167 474.199 400.811 474.047C399.456 473.894 398.139 473.292 396.861 472.242C395.583 471.192 394.398 469.721 393.307 467.831C392.219 465.947 391.542 464.192 391.274 462.565C391.012 460.936 391.154 459.496 391.7 458.245C392.251 456.992 393.192 455.981 394.521 455.213C395.851 454.445 397.196 454.141 398.555 454.299C399.91 454.452 401.226 455.051 402.5 456.095C403.777 457.131 404.96 458.591 406.048 460.476C407.142 462.371 407.825 464.135 408.095 465.767C408.363 467.393 408.225 468.834 407.683 470.091C407.137 471.341 406.197 472.352 404.862 473.123ZM403.553 470.857C404.73 470.177 405.318 469.072 405.317 467.541C405.321 466.007 404.696 464.153 403.442 461.98C402.609 460.537 401.752 459.406 400.871 458.586C399.993 457.758 399.122 457.25 398.259 457.061C397.399 456.864 396.581 456.989 395.805 457.437C394.634 458.113 394.048 459.221 394.046 460.761C394.045 462.301 394.667 464.156 395.913 466.327C396.749 467.775 397.607 468.914 398.485 469.742C399.365 470.562 400.234 471.067 401.092 471.259C401.946 471.445 402.767 471.311 403.553 470.857ZM414.349 459.452C412.317 460.625 411.586 463.278 412.773 465.334C413.974 467.413 416.637 468.107 418.669 466.934C420.748 465.733 421.455 463.094 420.255 461.014C419.068 458.959 416.429 458.252 414.349 459.452ZM417.841 465.5C416.598 466.217 414.953 465.797 414.207 464.506C413.476 463.239 413.934 461.604 415.177 460.886C416.468 460.141 418.089 460.576 418.82 461.842C419.566 463.133 419.131 464.754 417.841 465.5Z" fill="#333333"/>
<path opacity="0.5" d="M682.146 473.749C680.98 473.076 680.055 472.274 679.37 471.343C678.691 470.415 678.292 469.442 678.171 468.421C678.06 467.399 678.257 466.404 678.763 465.436L681.429 466.975C681.165 467.509 681.08 468.056 681.172 468.615C681.273 469.171 681.52 469.698 681.911 470.196C682.303 470.694 682.81 471.122 683.433 471.482C684.117 471.877 684.791 472.108 685.455 472.174C686.124 472.243 686.731 472.152 687.276 471.901C687.824 471.644 688.26 471.236 688.583 470.675C688.92 470.093 689.066 469.494 689.021 468.879C688.984 468.262 688.754 467.662 688.33 467.077C687.911 466.496 687.3 465.973 686.496 465.509L685.028 464.661L686.263 462.522L687.731 463.37C688.376 463.743 689.009 463.953 689.63 464.002C690.256 464.055 690.827 463.954 691.343 463.701C691.862 463.443 692.283 463.033 692.606 462.473C692.917 461.935 693.065 461.398 693.05 460.862C693.044 460.323 692.886 459.813 692.575 459.331C692.27 458.853 691.821 458.443 691.226 458.1C690.661 457.773 690.071 457.572 689.458 457.498C688.854 457.42 688.288 457.486 687.76 457.694C687.235 457.897 686.808 458.258 686.479 458.777L683.941 457.311C684.511 456.388 685.266 455.722 686.203 455.313C687.147 454.907 688.171 454.755 689.274 454.856C690.377 454.958 691.461 455.315 692.525 455.93C693.64 456.573 694.476 457.347 695.033 458.249C695.6 459.15 695.896 460.087 695.923 461.06C695.955 462.037 695.722 462.951 695.223 463.802C694.666 464.779 693.918 465.448 692.977 465.81C692.042 466.176 691.054 466.213 690.015 465.922L689.936 466.058C690.99 466.9 691.619 467.875 691.825 468.982C692.036 470.092 691.822 471.195 691.183 472.289C690.636 473.249 689.875 473.953 688.9 474.401C687.93 474.852 686.858 475.029 685.685 474.932C684.514 474.83 683.334 474.435 682.146 473.749ZM698.24 483.109C696.902 482.329 695.96 481.314 695.414 480.063C694.869 478.812 694.731 477.371 695.002 475.739C695.273 474.107 695.954 472.347 697.045 470.457C698.133 468.572 699.314 467.108 700.589 466.063C701.869 465.022 703.187 464.424 704.543 464.272C705.904 464.122 707.25 464.431 708.58 465.199C709.91 465.967 710.846 466.979 711.388 468.235C711.933 469.485 712.072 470.924 711.805 472.55C711.547 474.174 710.873 475.928 709.785 477.812C708.691 479.708 707.505 481.181 706.227 482.231C704.952 483.276 703.635 483.878 702.276 484.036C700.921 484.189 699.575 483.88 698.24 483.109ZM699.548 480.842C700.725 481.522 701.976 481.479 703.301 480.712C704.632 479.949 705.925 478.481 707.18 476.308C708.013 474.865 708.564 473.557 708.833 472.385C709.112 471.21 709.117 470.202 708.848 469.36C708.588 468.516 708.071 467.87 707.296 467.423C706.124 466.747 704.872 466.793 703.537 467.562C702.203 468.331 700.908 469.797 699.651 471.961C698.814 473.41 698.257 474.721 697.979 475.896C697.709 477.068 697.706 478.074 697.969 478.912C698.235 479.745 698.761 480.388 699.548 480.842ZM714.822 484.49C712.791 483.317 710.128 484.01 708.941 486.066C707.74 488.145 708.471 490.798 710.503 491.971C712.582 493.172 715.222 492.465 716.422 490.385C717.609 488.33 716.902 485.691 714.822 484.49ZM711.331 490.537C710.088 489.82 709.63 488.185 710.375 486.894C711.106 485.627 712.751 485.206 713.994 485.924C715.285 486.669 715.719 488.29 714.988 489.557C714.243 490.848 712.622 491.282 711.331 490.537Z" fill="#333333"/>
<path opacity="0.5" d="M787.709 575.457C787.273 574.675 786.974 573.829 786.811 572.92C786.651 572.016 786.712 571.076 786.993 570.099C787.273 569.122 787.843 568.14 788.7 567.155C789.56 566.175 790.791 565.223 792.392 564.299C793.909 563.423 795.342 562.796 796.692 562.416C798.046 562.042 799.292 561.907 800.431 562.012C801.576 562.113 802.594 562.445 803.486 563.009C804.378 563.574 805.114 564.359 805.696 565.367C806.293 566.402 806.621 567.439 806.677 568.478C806.734 569.517 806.546 570.493 806.115 571.405C805.687 572.324 805.054 573.116 804.216 573.781L802.721 571.192C803.344 570.598 803.735 569.909 803.892 569.124C804.05 568.339 803.887 567.527 803.404 566.69C802.669 565.416 801.541 564.744 800.02 564.671C798.503 564.604 796.755 565.138 794.777 566.272L794.85 566.4C795.516 566.415 796.147 566.541 796.743 566.778C797.349 567.017 797.902 567.354 798.403 567.789C798.912 568.227 799.341 568.749 799.691 569.354C800.272 570.361 800.552 571.414 800.53 572.513C800.517 573.615 800.221 574.657 799.642 575.641C799.063 576.624 798.219 577.436 797.11 578.076C796.001 578.716 794.851 579.044 793.66 579.06C792.473 579.082 791.355 578.792 790.306 578.19C789.263 577.585 788.397 576.674 787.709 575.457ZM789.911 574.174C790.297 574.842 790.806 575.344 791.438 575.681C792.07 576.018 792.751 576.179 793.482 576.164C794.213 576.149 794.921 575.944 795.606 575.549C796.273 575.164 796.795 574.662 797.171 574.046C797.55 573.434 797.75 572.776 797.772 572.069C797.798 571.368 797.619 570.686 797.237 570.024C796.946 569.52 796.58 569.109 796.14 568.79C795.702 568.477 795.221 568.257 794.695 568.13C794.169 568.004 793.632 567.974 793.083 568.043C792.542 568.113 792.029 568.289 791.542 568.57C790.891 568.945 790.375 569.443 789.994 570.063C789.616 570.689 789.409 571.363 789.373 572.085C789.346 572.81 789.526 573.506 789.911 574.174ZM796.836 591.382C796.067 590.037 795.759 588.687 795.912 587.332C796.065 585.976 796.667 584.659 797.717 583.381C798.767 582.103 800.237 580.919 802.127 579.827C804.012 578.74 805.767 578.062 807.393 577.794C809.023 577.533 810.463 577.675 811.713 578.22C812.967 578.771 813.978 579.712 814.746 581.042C815.513 582.371 815.818 583.716 815.66 585.075C815.507 586.431 814.908 587.746 813.863 589.021C812.828 590.298 811.367 591.48 809.483 592.568C807.587 593.662 805.824 594.345 804.192 594.616C802.566 594.883 801.124 594.746 799.868 594.203C798.618 593.658 797.607 592.717 796.836 591.382ZM799.102 590.073C799.782 591.25 800.887 591.838 802.418 591.837C803.952 591.842 805.806 591.217 807.979 589.962C809.422 589.129 810.553 588.272 811.372 587.392C812.201 586.513 812.709 585.643 812.897 584.78C813.095 583.919 812.969 583.101 812.522 582.326C811.845 581.154 810.737 580.568 809.198 580.567C807.658 580.565 805.802 581.188 803.632 582.433C802.183 583.27 801.045 584.127 800.216 585.005C799.397 585.886 798.891 586.755 798.7 587.612C798.514 588.466 798.648 589.287 799.102 590.073ZM810.506 600.869C809.333 598.838 806.68 598.107 804.625 599.293C802.545 600.494 801.852 603.157 803.025 605.189C804.226 607.268 806.865 607.976 808.944 606.775C811 605.588 811.707 602.949 810.506 600.869ZM804.459 604.361C803.742 603.118 804.162 601.473 805.453 600.728C806.72 599.996 808.355 600.455 809.072 601.697C809.817 602.988 809.383 604.609 808.116 605.341C806.826 606.086 805.204 605.652 804.459 604.361Z" fill="#333333"/>
<path opacity="0.5" d="M273.935 604.371C273.262 605.536 272.46 606.462 271.529 607.146C270.601 607.826 269.627 608.225 268.607 608.345C267.584 608.457 266.589 608.26 265.621 607.754L267.16 605.088C267.695 605.352 268.241 605.437 268.8 605.345C269.357 605.244 269.884 604.997 270.381 604.605C270.879 604.214 271.308 603.707 271.667 603.084C272.062 602.4 272.293 601.725 272.359 601.062C272.429 600.393 272.338 599.786 272.087 599.241C271.83 598.693 271.421 598.257 270.861 597.933C270.278 597.597 269.679 597.451 269.065 597.496C268.448 597.532 267.847 597.763 267.263 598.187C266.681 598.606 266.159 599.217 265.695 600.021L264.847 601.489L262.708 600.254L263.556 598.786C263.928 598.141 264.139 597.508 264.188 596.887C264.24 596.261 264.14 595.69 263.887 595.174C263.628 594.655 263.219 594.234 262.658 593.911C262.121 593.6 261.584 593.452 261.047 593.467C260.508 593.473 259.998 593.631 259.517 593.942C259.039 594.247 258.629 594.696 258.285 595.29C257.959 595.856 257.758 596.446 257.683 597.059C257.606 597.663 257.671 598.229 257.88 598.757C258.083 599.281 258.443 599.709 258.962 600.038L257.497 602.576C256.574 602.006 255.908 601.251 255.499 600.313C255.093 599.37 254.94 598.346 255.042 597.243C255.143 596.14 255.501 595.056 256.115 593.992C256.759 592.877 257.532 592.041 258.435 591.484C259.335 590.917 260.272 590.62 261.246 590.594C262.223 590.562 263.137 590.795 263.988 591.294C264.964 591.851 265.634 592.599 265.996 593.54C266.361 594.475 266.399 595.463 266.108 596.502L266.244 596.58C267.086 595.527 268.06 594.898 269.167 594.692C270.278 594.481 271.38 594.695 272.475 595.334C273.434 595.881 274.138 596.642 274.586 597.617C275.037 598.587 275.214 599.658 275.118 600.832C275.015 602.003 274.621 603.182 273.935 604.371ZM283.294 588.277C282.514 589.615 281.499 590.557 280.249 591.102C278.998 591.648 277.557 591.785 275.925 591.515C274.293 591.244 272.532 590.563 270.642 589.472C268.758 588.384 267.293 587.203 266.249 585.928C265.207 584.648 264.61 583.33 264.457 581.974C264.308 580.613 264.617 579.267 265.384 577.937C266.152 576.607 267.164 575.671 268.42 575.129C269.671 574.584 271.109 574.444 272.736 574.712C274.359 574.97 276.113 575.644 277.998 576.731C279.893 577.826 281.366 579.012 282.417 580.29C283.462 581.565 284.063 582.881 284.222 584.241C284.374 585.596 284.065 586.942 283.294 588.277ZM281.028 586.969C281.707 585.792 281.664 584.541 280.898 583.215C280.134 581.885 278.666 580.592 276.493 579.337C275.05 578.504 273.743 577.953 272.57 577.683C271.396 577.405 270.387 577.4 269.546 577.669C268.702 577.928 268.056 578.446 267.608 579.221C266.932 580.392 266.978 581.645 267.747 582.979C268.516 584.314 269.983 585.609 272.147 586.866C273.595 587.703 274.907 588.26 276.082 588.538C277.254 588.808 278.259 588.811 279.098 588.548C279.93 588.282 280.574 587.755 281.028 586.969ZM292.616 572.131C291.836 573.469 290.821 574.411 289.571 574.956C288.32 575.502 286.879 575.639 285.247 575.369C283.615 575.098 281.854 574.417 279.964 573.326C278.08 572.238 276.615 571.057 275.571 569.782C274.529 568.502 273.932 567.184 273.779 565.828C273.63 564.466 273.939 563.121 274.707 561.791C275.474 560.461 276.486 559.525 277.742 558.983C278.993 558.437 280.431 558.298 282.058 558.566C283.681 558.824 285.435 559.497 287.32 560.585C289.215 561.68 290.688 562.866 291.739 564.144C292.784 565.418 293.385 566.735 293.544 568.094C293.696 569.45 293.387 570.796 292.616 572.131ZM290.35 570.823C291.029 569.646 290.986 568.395 290.22 567.069C289.456 565.738 287.988 564.446 285.815 563.191C284.372 562.358 283.065 561.807 281.892 561.537C280.718 561.259 279.709 561.254 278.868 561.523C278.024 561.782 277.378 562.3 276.93 563.075C276.254 564.246 276.3 565.499 277.069 566.833C277.838 568.167 279.305 569.463 281.469 570.72C282.917 571.556 284.229 572.114 285.404 572.392C286.576 572.661 287.581 572.665 288.42 572.402C289.252 572.136 289.896 571.609 290.35 570.823ZM293.997 555.548C292.824 557.58 293.518 560.243 295.573 561.43C297.653 562.63 300.306 561.899 301.479 559.868C302.68 557.788 301.972 555.149 299.893 553.948C297.837 552.762 295.198 553.469 293.997 555.548ZM300.045 559.04C299.327 560.283 297.692 560.741 296.401 559.996C295.135 559.264 294.714 557.619 295.432 556.376C296.177 555.086 297.798 554.651 299.065 555.383C300.356 556.128 300.79 557.749 300.045 559.04Z" fill="#333333"/>
<path opacity="0.5" d="M298.512 900.473L296.611 901.571L287.12 899.208C286.095 898.962 285.216 898.779 284.483 898.659C283.741 898.537 283.085 898.504 282.515 898.562C281.944 898.62 281.405 898.795 280.895 899.089C280.318 899.423 279.899 899.846 279.637 900.359C279.369 900.876 279.258 901.434 279.302 902.035C279.342 902.638 279.531 903.234 279.871 903.823C280.23 904.445 280.671 904.915 281.194 905.232C281.716 905.549 282.281 905.698 282.889 905.679C283.497 905.66 284.112 905.471 284.734 905.112L286.18 907.616C285.122 908.227 284.056 908.518 282.983 908.488C281.91 908.459 280.91 908.146 279.985 907.549C279.053 906.955 278.276 906.117 277.652 905.036C277.021 903.944 276.683 902.857 276.639 901.773C276.585 900.687 276.797 899.694 277.272 898.793C277.743 897.895 278.444 897.177 279.378 896.638C280.023 896.266 280.724 896.023 281.482 895.91C282.236 895.792 283.163 895.811 284.265 895.967C285.36 896.127 286.751 896.425 288.437 896.863L294.048 898.23L294.175 898.156L289.657 890.33L291.906 889.032L298.512 900.473ZM286.666 887.796L284.544 889.021L268.341 888.36L267.375 886.688L270.499 884.885L271.111 885.946L282.718 886.408L282.854 886.33L276.91 876.034L279.134 874.75L286.666 887.796ZM285.303 877.594L281.262 879.927L280.285 880.468L267.909 887.613L266.473 885.126L283.857 875.09L285.303 877.594ZM277.201 862.896C277.97 864.241 278.278 865.591 278.125 866.946C277.972 868.302 277.371 869.619 276.32 870.897C275.27 872.175 273.8 873.359 271.91 874.451C270.026 875.538 268.27 876.216 266.644 876.484C265.015 876.745 263.575 876.603 262.324 876.058C261.07 875.507 260.059 874.566 259.292 873.236C258.524 871.907 258.219 870.562 258.378 869.203C258.531 867.847 259.129 866.532 260.174 865.257C261.21 863.98 262.67 862.798 264.554 861.71C266.45 860.616 268.214 859.933 269.846 859.662C271.472 859.395 272.913 859.532 274.169 860.075C275.42 860.62 276.43 861.561 277.201 862.896ZM274.935 864.205C274.256 863.028 273.15 862.44 271.619 862.441C270.085 862.436 268.232 863.061 266.059 864.316C264.616 865.149 263.484 866.006 262.665 866.886C261.837 867.765 261.328 868.635 261.14 869.498C260.943 870.359 261.068 871.177 261.516 871.952C262.192 873.124 263.3 873.71 264.84 873.711C266.38 873.713 268.235 873.09 270.405 871.845C271.854 871.008 272.993 870.151 273.821 869.273C274.641 868.392 275.146 867.523 275.338 866.666C275.523 865.812 275.389 864.991 274.935 864.205ZM263.531 853.409C264.704 855.44 267.357 856.171 269.412 854.984C271.492 853.784 272.185 851.121 271.012 849.089C269.812 847.01 267.173 846.302 265.093 847.503C263.037 848.69 262.33 851.329 263.531 853.409ZM269.578 849.917C270.296 851.16 269.875 852.805 268.584 853.55C267.318 854.282 265.683 853.823 264.965 852.581C264.22 851.29 264.654 849.669 265.921 848.937C267.212 848.192 268.833 848.626 269.578 849.917Z" fill="#333333"/>
<path opacity="0.5" d="M820.961 869.594L803.577 859.557L805.096 856.926L819.849 865.443L819.907 865.341L819.592 859.614L822.105 861.065L822.436 867.039L820.961 869.594ZM800.448 864.977L802.35 866.074L805.048 875.475C805.347 876.486 805.628 877.338 805.891 878.033C806.156 878.737 806.456 879.321 806.791 879.787C807.127 880.252 807.549 880.631 808.058 880.925C808.635 881.258 809.212 881.41 809.787 881.38C810.368 881.354 810.908 881.171 811.405 880.832C811.908 880.496 812.33 880.034 812.67 879.446C813.029 878.823 813.215 878.206 813.229 877.595C813.242 876.984 813.088 876.42 812.768 875.903C812.448 875.387 811.976 874.948 811.354 874.589L812.8 872.085C813.858 872.696 814.643 873.474 815.154 874.418C815.665 875.362 815.893 876.384 815.839 877.484C815.79 878.588 815.454 879.68 814.83 880.761C814.2 881.853 813.426 882.689 812.51 883.269C811.597 883.859 810.631 884.172 809.613 884.211C808.6 884.253 807.627 884.004 806.694 883.465C806.049 883.092 805.488 882.606 805.011 882.007C804.532 881.413 804.085 880.6 803.669 879.568C803.26 878.54 802.823 877.186 802.359 875.507L800.737 869.965L800.61 869.891L796.092 877.717L793.842 876.419L800.448 864.977ZM787.788 886.238C788.568 884.9 789.583 883.958 790.834 883.413C792.085 882.867 793.526 882.73 795.158 883.001C796.789 883.271 798.55 883.952 800.44 885.043C802.325 886.131 803.789 887.313 804.834 888.587C805.875 889.867 806.473 891.186 806.625 892.541C806.775 893.903 806.466 895.248 805.698 896.578C804.93 897.908 803.918 898.844 802.662 899.386C801.412 899.932 799.973 900.071 798.347 899.803C796.723 899.545 794.969 898.872 793.085 897.784C791.189 896.689 789.716 895.503 788.666 894.225C787.621 892.951 787.019 891.634 786.861 890.275C786.708 888.919 787.017 887.573 787.788 886.238ZM790.055 887.546C789.375 888.723 789.418 889.975 790.185 891.3C790.948 892.631 792.416 893.923 794.589 895.178C796.032 896.011 797.34 896.562 798.512 896.832C799.687 897.11 800.695 897.115 801.537 896.847C802.381 896.587 803.027 896.069 803.474 895.294C804.15 894.123 804.104 892.87 803.335 891.536C802.566 890.202 801.1 888.906 798.936 887.649C797.487 886.813 796.176 886.255 795.001 885.977C793.829 885.708 792.823 885.704 791.985 885.967C791.152 886.233 790.509 886.76 790.055 887.546ZM786.407 902.821C787.58 900.789 786.887 898.126 784.831 896.939C782.752 895.739 780.099 896.47 778.926 898.501C777.725 900.581 778.432 903.22 780.512 904.421C782.567 905.607 785.206 904.9 786.407 902.821ZM780.36 899.329C781.077 898.086 782.712 897.628 784.003 898.373C785.27 899.105 785.69 900.75 784.973 901.993C784.228 903.284 782.606 903.718 781.34 902.987C780.049 902.241 779.615 900.62 780.36 899.329Z" fill="#333333"/>
<path opacity="0.5" d="M416.893 1000.71L415.634 1002.51L406.034 1004.38C405.001 1004.59 404.127 1004.79 403.412 1005C402.688 1005.2 402.079 1005.45 401.587 1005.74C401.094 1006.03 400.68 1006.42 400.342 1006.9C399.96 1007.45 399.759 1008.01 399.738 1008.59C399.714 1009.17 399.849 1009.72 400.143 1010.25C400.434 1010.78 400.858 1011.24 401.414 1011.63C402.003 1012.04 402.601 1012.28 403.209 1012.34C403.816 1012.41 404.391 1012.31 404.934 1012.03C405.477 1011.76 405.955 1011.33 406.367 1010.74L408.735 1012.4C408.035 1013.4 407.192 1014.11 406.207 1014.54C405.222 1014.97 404.183 1015.1 403.092 1014.95C401.997 1014.81 400.938 1014.38 399.916 1013.66C398.883 1012.94 398.117 1012.1 397.619 1011.13C397.112 1010.17 396.883 1009.18 396.934 1008.17C396.98 1007.15 397.313 1006.21 397.931 1005.32C398.358 1004.71 398.891 1004.2 399.53 1003.77C400.163 1003.35 401.012 1002.97 402.076 1002.65C403.137 1002.33 404.524 1002.01 406.237 1001.7L411.899 1000.56L411.983 1000.44L404.581 995.261L406.071 993.134L416.893 1000.71ZM384.598 1002.6L396.111 986.16L398.6 987.903L388.83 1001.86L388.926 1001.92L394.659 1002.11L392.995 1004.49L387.015 1004.29L384.598 1002.6ZM385.452 978.29C386.717 979.183 387.566 980.277 388.001 981.57C388.435 982.863 388.447 984.311 388.035 985.913C387.623 987.515 386.791 989.21 385.539 990.998C384.291 992.78 382.987 994.136 381.626 995.066C380.26 995.992 378.895 996.472 377.531 996.506C376.162 996.536 374.848 996.111 373.59 995.23C372.332 994.349 371.488 993.26 371.057 991.961C370.623 990.668 370.61 989.222 371.018 987.626C371.417 986.031 372.24 984.342 373.488 982.56C374.744 980.766 376.054 979.402 377.419 978.468C378.779 977.538 380.144 977.053 381.511 977.014C382.875 976.98 384.189 977.405 385.452 978.29ZM383.951 980.433C382.838 979.654 381.588 979.588 380.2 980.236C378.808 980.88 377.392 982.23 375.953 984.285C374.997 985.65 374.334 986.905 373.964 988.049C373.584 989.195 373.491 990.199 373.686 991.061C373.871 991.925 374.33 992.613 375.063 993.126C376.171 993.902 377.423 993.965 378.819 993.316C380.215 992.666 381.634 991.318 383.075 989.272C384.034 987.902 384.704 986.644 385.083 985.498C385.454 984.353 385.545 983.352 385.356 982.494C385.163 981.641 384.695 980.954 383.951 980.433ZM369.053 975.468C370.974 976.814 373.688 976.355 375.049 974.411C376.426 972.444 375.929 969.737 374.008 968.392C372.041 967.015 369.35 967.489 367.973 969.456C366.611 971.4 367.086 974.091 369.053 975.468ZM373.058 969.748C374.233 970.572 374.547 972.24 373.693 973.461C372.854 974.659 371.178 974.935 370.002 974.112C368.782 973.257 368.49 971.604 369.329 970.406C370.184 969.185 371.837 968.893 373.058 969.748Z" fill="#333333"/>
<path opacity="0.5" d="M709.508 992.307L697.995 975.864L700.484 974.121L710.254 988.075L710.35 988.008L712.485 982.684L714.149 985.06L711.925 990.615L709.508 992.307ZM687.284 983.029C688.29 982.324 689.33 981.884 690.402 981.707C691.473 981.539 692.485 981.628 693.437 981.975C694.39 982.321 695.187 982.919 695.83 983.769L693.422 985.455C692.868 984.79 692.148 984.429 691.263 984.371C690.377 984.313 689.538 984.562 688.745 985.116C688.114 985.559 687.656 986.095 687.371 986.725C687.085 987.364 686.982 988.038 687.064 988.747C687.14 989.459 687.408 990.145 687.869 990.803C688.338 991.472 688.9 991.968 689.557 992.29C690.213 992.612 690.9 992.745 691.619 992.689C692.332 992.636 693.016 992.384 693.673 991.932C694.171 991.583 694.611 991.147 694.995 990.624C695.378 990.1 695.627 989.59 695.743 989.095L698.251 987.841L703.129 996.773L694.089 1003.1L692.599 1000.98L699.576 996.09L696.877 991.124L696.78 991.192C696.677 991.727 696.433 992.285 696.049 992.865C695.66 993.448 695.161 993.953 694.55 994.381C693.549 995.082 692.492 995.467 691.376 995.538C690.256 995.613 689.183 995.395 688.156 994.886C687.127 994.385 686.243 993.601 685.503 992.532C684.751 991.471 684.327 990.352 684.229 989.176C684.127 988.004 684.335 986.877 684.854 985.795C685.371 984.723 686.181 983.801 687.284 983.029ZM672.255 993.481C673.527 992.598 674.845 992.173 676.209 992.207C677.573 992.241 678.937 992.726 680.302 993.661C681.666 994.596 682.975 995.957 684.226 997.745C685.474 999.527 686.302 1001.22 686.711 1002.81C687.113 1004.41 687.097 1005.86 686.663 1007.15C686.223 1008.45 685.374 1009.54 684.117 1010.42C682.859 1011.3 681.546 1011.72 680.178 1011.68C678.814 1011.65 677.452 1011.17 676.091 1010.24C674.729 1009.32 673.423 1007.97 672.175 1006.18C670.92 1004.39 670.086 1002.69 669.674 1001.09C669.266 999.494 669.278 998.046 669.708 996.747C670.143 995.454 670.992 994.365 672.255 993.481ZM673.756 995.624C672.642 996.404 672.153 997.556 672.288 999.081C672.417 1000.61 673.201 1002.4 674.64 1004.46C675.596 1005.82 676.548 1006.87 677.497 1007.61C678.444 1008.36 679.355 1008.79 680.232 1008.91C681.106 1009.03 681.91 1008.83 682.644 1008.32C683.752 1007.54 684.239 1006.39 684.106 1004.85C683.973 1003.32 683.192 1001.52 681.762 999.471C680.802 998.101 679.849 997.041 678.902 996.292C677.953 995.553 677.043 995.125 676.173 995.009C675.305 994.898 674.5 995.103 673.756 995.624ZM663.995 1007.93C665.916 1006.58 666.414 1003.87 665.052 1001.93C663.675 999.963 660.961 999.504 659.04 1000.85C657.073 1002.23 656.598 1004.92 657.976 1006.88C659.337 1008.83 662.028 1009.3 663.995 1007.93ZM659.99 1002.21C661.165 1001.38 662.841 1001.66 663.696 1002.88C664.535 1004.08 664.221 1005.75 663.045 1006.57C661.824 1007.42 660.171 1007.13 659.332 1005.93C658.477 1004.71 658.769 1003.06 659.99 1002.21Z" fill="#333333"/>
<path d="M550.428 285.059V325.787H544.78L524.078 295.917H523.7V325.787H517.556V285.059H523.243L543.965 314.968H544.342V285.059H550.428Z" fill="#F70000"/>
<path d="M954.603 745.002V704.274H980.137V709.564H960.748V721.973H978.804V727.243H960.748V739.712H980.375V745.002H954.603Z" fill="#47515C"/>
<path d="M542.167 1153.76C541.955 1151.88 541.08 1150.42 539.542 1149.39C538.004 1148.34 536.069 1147.82 533.735 1147.82C532.065 1147.82 530.62 1148.08 529.4 1148.61C528.18 1149.13 527.232 1149.85 526.556 1150.76C525.893 1151.66 525.562 1152.69 525.562 1153.84C525.562 1154.81 525.787 1155.65 526.238 1156.35C526.702 1157.05 527.305 1157.64 528.048 1158.12C528.803 1158.58 529.612 1158.97 530.474 1159.29C531.336 1159.6 532.164 1159.85 532.96 1160.05L536.937 1161.08C538.236 1161.4 539.569 1161.83 540.934 1162.37C542.3 1162.92 543.566 1163.63 544.732 1164.52C545.899 1165.41 546.84 1166.51 547.556 1167.82C548.285 1169.14 548.65 1170.71 548.65 1172.54C548.65 1174.84 548.053 1176.89 546.86 1178.68C545.68 1180.47 543.963 1181.88 541.71 1182.92C539.469 1183.95 536.758 1184.47 533.576 1184.47C530.527 1184.47 527.889 1183.98 525.661 1183.02C523.434 1182.05 521.691 1180.68 520.431 1178.9C519.172 1177.11 518.476 1174.99 518.343 1172.54H524.508C524.627 1174.01 525.104 1175.23 525.94 1176.21C526.788 1177.18 527.869 1177.91 529.181 1178.38C530.507 1178.85 531.959 1179.08 533.536 1179.08C535.273 1179.08 536.818 1178.81 538.17 1178.26C539.535 1177.71 540.609 1176.94 541.391 1175.96C542.174 1174.96 542.565 1173.8 542.565 1172.48C542.565 1171.27 542.22 1170.28 541.531 1169.51C540.854 1168.74 539.933 1168.11 538.766 1167.6C537.613 1167.1 536.307 1166.66 534.849 1166.27L530.036 1164.96C526.775 1164.07 524.19 1162.76 522.281 1161.04C520.385 1159.32 519.437 1157.04 519.437 1154.2C519.437 1151.85 520.073 1149.81 521.346 1148.06C522.619 1146.31 524.342 1144.95 526.516 1143.98C528.691 1143 531.143 1142.51 533.874 1142.51C536.632 1142.51 539.065 1142.99 541.173 1143.96C543.294 1144.93 544.964 1146.26 546.184 1147.96C547.404 1149.64 548.04 1151.58 548.093 1153.76H542.167Z" fill="#47515C"/>
<path d="M88.5772 752.002L77.2817 711.274H83.7448L91.6795 742.814H92.0573L100.31 711.274H106.714L114.966 742.834H115.344L123.259 711.274H129.742L118.427 752.002H112.242L103.671 721.496H103.353L94.7817 752.002H88.5772Z" fill="#47515C"/>
<path d="M550.822 1045.44V1021H555.249V1041.13H555.392L561.107 1037.48V1041.53L555.034 1045.44H550.822ZM534.923 1020.66C536.697 1020.66 538.272 1020.96 539.648 1021.56C541.016 1022.16 542.09 1022.97 542.87 1024.01C543.641 1025.05 544.023 1026.23 544.015 1027.55C544.023 1028.58 543.8 1029.52 543.347 1030.38C542.894 1031.24 542.281 1031.95 541.51 1032.52C540.73 1033.11 539.863 1033.48 538.908 1033.63V1033.8C540.165 1034.08 541.183 1034.72 541.963 1035.72C542.735 1036.73 543.116 1037.9 543.108 1039.22C543.116 1040.48 542.766 1041.6 542.058 1042.58C541.35 1043.57 540.38 1044.35 539.147 1044.91C537.914 1045.48 536.506 1045.77 534.923 1045.77C533.356 1045.77 531.96 1045.48 530.735 1044.91C529.502 1044.35 528.532 1043.57 527.824 1042.58C527.108 1041.6 526.75 1040.48 526.75 1039.22C526.75 1037.9 527.144 1036.73 527.931 1035.72C528.711 1034.72 529.717 1034.08 530.95 1033.8V1033.63C529.995 1033.48 529.136 1033.11 528.373 1032.52C527.601 1031.95 526.989 1031.24 526.535 1030.38C526.074 1029.52 525.843 1028.58 525.843 1027.55C525.843 1026.23 526.233 1025.05 527.012 1024.01C527.792 1022.97 528.866 1022.16 530.234 1021.56C531.594 1020.96 533.157 1020.66 534.923 1020.66ZM534.923 1024.08C534.008 1024.08 533.213 1024.23 532.537 1024.54C531.861 1024.86 531.336 1025.31 530.962 1025.88C530.588 1026.45 530.397 1027.11 530.389 1027.86C530.397 1028.64 530.6 1029.33 530.998 1029.92C531.387 1030.53 531.924 1031 532.608 1031.34C533.285 1031.69 534.056 1031.86 534.923 1031.86C535.798 1031.86 536.578 1031.69 537.262 1031.34C537.946 1031 538.487 1030.53 538.885 1029.92C539.274 1029.33 539.465 1028.64 539.457 1027.86C539.465 1027.11 539.282 1026.45 538.908 1025.88C538.535 1025.31 538.01 1024.87 537.333 1024.55C536.649 1024.24 535.846 1024.08 534.923 1024.08ZM534.923 1035.21C534.175 1035.21 533.515 1035.36 532.943 1035.66C532.362 1035.97 531.904 1036.39 531.57 1036.93C531.236 1037.47 531.065 1038.09 531.057 1038.8C531.065 1039.5 531.232 1040.11 531.558 1040.64C531.885 1041.17 532.338 1041.58 532.919 1041.87C533.499 1042.16 534.168 1042.31 534.923 1042.31C535.695 1042.31 536.375 1042.16 536.964 1041.87C537.544 1041.58 537.998 1041.17 538.324 1040.64C538.642 1040.11 538.797 1039.5 538.789 1038.8C538.797 1038.09 538.638 1037.47 538.312 1036.93C537.978 1036.39 537.52 1035.97 536.94 1035.66C536.351 1035.36 535.679 1035.21 534.923 1035.21ZM511.88 1020.53C513.845 1020.53 515.531 1021.03 516.939 1022.02C518.339 1023.03 519.417 1024.47 520.173 1026.36C520.92 1028.25 521.294 1030.53 521.294 1033.19C521.286 1035.86 520.909 1038.12 520.161 1039.99C519.405 1041.87 518.327 1043.3 516.927 1044.29C515.519 1045.28 513.837 1045.77 511.88 1045.77C509.923 1045.77 508.241 1045.28 506.833 1044.29C505.425 1043.3 504.347 1041.87 503.599 1039.99C502.844 1038.12 502.466 1035.85 502.466 1033.19C502.466 1030.52 502.844 1028.24 503.599 1026.34C504.347 1024.46 505.425 1023.02 506.833 1022.02C508.233 1021.03 509.915 1020.53 511.88 1020.53ZM511.88 1024.27C510.353 1024.27 509.148 1025.02 508.265 1026.52C507.374 1028.03 506.928 1030.26 506.928 1033.19C506.928 1035.13 507.131 1036.76 507.537 1038.09C507.943 1039.41 508.515 1040.4 509.255 1041.07C509.995 1041.74 510.87 1042.08 511.88 1042.08C513.399 1042.08 514.601 1041.33 515.484 1039.82C516.366 1038.31 516.812 1036.1 516.82 1033.19C516.828 1031.24 516.633 1029.61 516.235 1028.28C515.83 1026.95 515.257 1025.95 514.517 1025.27C513.777 1024.6 512.898 1024.27 511.88 1024.27ZM493.18 1029.23C496.036 1029.23 498.422 1026.88 498.422 1023.99C498.422 1021.07 496.036 1018.71 493.18 1018.71C490.257 1018.71 487.905 1021.07 487.905 1023.99C487.905 1026.88 490.257 1029.23 493.18 1029.23ZM493.18 1020.73C494.928 1020.73 496.406 1022.17 496.406 1023.99C496.406 1025.77 494.928 1027.21 493.18 1027.21C491.366 1027.21 489.921 1025.77 489.921 1023.99C489.921 1022.17 491.366 1020.73 493.18 1020.73Z" fill="#333333"/>
<path d="M257 760.201L254.327 760.201L245.76 751.933C244.829 751.05 244.014 750.322 243.314 749.749C242.606 749.168 241.934 748.735 241.297 748.448C240.661 748.162 239.985 748.019 239.269 748.019C238.458 748.019 237.758 748.21 237.169 748.592C236.572 748.973 236.115 749.494 235.797 750.155C235.471 750.815 235.308 751.559 235.308 752.386C235.308 753.261 235.487 754.025 235.844 754.677C236.202 755.329 236.708 755.83 237.36 756.18C238.012 756.53 238.776 756.705 239.651 756.705L239.651 760.225C238.163 760.225 236.863 759.883 235.749 759.199C234.635 758.515 233.772 757.576 233.16 756.383C232.539 755.19 232.229 753.834 232.229 752.314C232.229 750.779 232.535 749.427 233.148 748.258C233.752 747.08 234.58 746.162 235.63 745.501C236.672 744.841 237.849 744.511 239.162 744.511C240.068 744.511 240.955 744.682 241.822 745.024C242.689 745.358 243.656 745.943 244.722 746.778C245.78 747.613 247.064 748.775 248.576 750.262L253.659 755.118L253.838 755.118L253.838 744.117L257 744.117L257 760.201ZM257 737.501L235.904 726.834L235.725 726.834L235.725 739.172L232.563 739.172L232.563 723.016L235.833 723.016L257 733.647L257 737.501ZM257.465 709.268C257.465 711.233 256.968 712.919 255.973 714.327C254.971 715.727 253.527 716.805 251.642 717.56C249.749 718.308 247.47 718.682 244.805 718.682C242.14 718.674 239.873 718.296 238.004 717.549C236.127 716.793 234.695 715.715 233.709 714.315C232.722 712.907 232.229 711.225 232.229 709.268C232.229 707.311 232.722 705.629 233.709 704.221C234.695 702.813 236.127 701.735 238.004 700.987C239.881 700.231 242.148 699.854 244.805 699.854C247.478 699.854 249.761 700.231 251.654 700.987C253.539 701.735 254.979 702.813 255.973 704.221C256.968 705.621 257.465 707.303 257.465 709.268ZM253.73 709.268C253.73 707.741 252.979 706.535 251.475 705.652C249.964 704.762 247.74 704.316 244.805 704.316C242.864 704.316 241.234 704.519 239.913 704.925C238.593 705.33 237.598 705.903 236.93 706.643C236.254 707.383 235.916 708.258 235.916 709.268C235.916 710.787 236.672 711.988 238.183 712.871C239.687 713.754 241.894 714.2 244.805 714.208C246.754 714.216 248.393 714.021 249.721 713.623C251.05 713.217 252.052 712.645 252.728 711.905C253.396 711.165 253.73 710.286 253.73 709.268ZM248.768 690.568C248.768 693.424 251.12 695.81 254.009 695.81C256.932 695.81 259.284 693.424 259.284 690.568C259.284 687.645 256.932 685.293 254.009 685.293C251.12 685.293 248.768 687.645 248.768 690.568ZM257.268 690.568C257.268 692.315 255.824 693.794 254.009 693.794C252.228 693.794 250.784 692.315 250.784 690.568C250.784 688.754 252.228 687.309 254.009 687.309C255.824 687.309 257.268 688.754 257.268 690.568Z" fill="#333333"/>
<path d="M849.769 715.75C849.762 716.919 849.555 718.056 849.149 719.162C848.751 720.276 848.099 721.278 847.192 722.169C846.293 723.06 845.088 723.768 843.577 724.293C842.066 724.818 840.196 725.08 837.969 725.08C835.869 725.088 833.992 724.865 832.337 724.412C830.691 723.967 829.298 723.326 828.161 722.491C827.023 721.656 826.156 720.65 825.56 719.472C824.963 718.295 824.665 716.971 824.665 715.499C824.665 713.956 824.967 712.588 825.572 711.394C826.176 710.209 827.004 709.251 828.054 708.519C829.104 707.787 830.305 707.338 831.657 707.171L831.657 711.526C830.687 711.748 829.915 712.202 829.342 712.886C828.777 713.578 828.495 714.449 828.495 715.499C828.495 717.193 829.231 718.498 830.702 719.413C832.174 720.327 834.218 720.785 836.835 720.785L836.835 720.618C836.135 720.228 835.531 719.723 835.022 719.102C834.521 718.482 834.135 717.778 833.864 716.99C833.594 716.211 833.459 715.384 833.459 714.509C833.459 713.077 833.801 711.788 834.485 710.643C835.169 709.505 836.108 708.602 837.301 707.934C838.494 707.274 839.858 706.94 841.393 706.932C842.984 706.932 844.412 707.298 845.677 708.03C846.95 708.769 847.952 709.8 848.684 711.12C849.423 712.44 849.785 713.984 849.769 715.75ZM846.19 715.761C846.19 714.902 845.979 714.127 845.558 713.435C845.144 712.751 844.579 712.21 843.863 711.812C843.155 711.422 842.364 711.227 841.489 711.227C840.622 711.235 839.834 711.43 839.126 711.812C838.418 712.202 837.858 712.731 837.444 713.399C837.03 714.075 836.823 714.847 836.823 715.714C836.823 716.358 836.947 716.959 837.193 717.515C837.44 718.072 837.782 718.557 838.219 718.971C838.665 719.393 839.17 719.719 839.735 719.95C840.3 720.188 840.896 720.304 841.525 720.296C842.36 720.296 843.131 720.097 843.839 719.699C844.547 719.309 845.116 718.772 845.546 718.088C845.975 717.412 846.19 716.636 846.19 715.761ZM824.534 739.094C824.534 737.129 825.031 735.443 826.025 734.035C827.027 732.635 828.471 731.557 830.356 730.801C832.25 730.054 834.529 729.68 837.193 729.68C839.858 729.688 842.125 730.065 843.994 730.813C845.872 731.569 847.304 732.647 848.29 734.047C849.276 735.455 849.769 737.137 849.769 739.094C849.769 741.051 849.276 742.733 848.29 744.141C847.304 745.549 845.872 746.627 843.994 747.375C842.117 748.13 839.85 748.508 837.193 748.508C834.521 748.508 832.238 748.13 830.344 747.375C828.459 746.627 827.019 745.549 826.025 744.141C825.031 742.741 824.534 741.059 824.534 739.094ZM828.268 739.094C828.268 740.621 829.02 741.826 830.523 742.709C832.035 743.6 834.258 744.046 837.193 744.046C839.134 744.046 840.765 743.843 842.085 743.437C843.406 743.031 844.4 742.459 845.068 741.719C845.744 740.979 846.083 740.104 846.083 739.094C846.083 737.575 845.327 736.373 843.816 735.49C842.312 734.608 840.105 734.162 837.193 734.154C835.244 734.146 833.606 734.341 832.277 734.739C830.949 735.144 829.947 735.717 829.271 736.457C828.602 737.197 828.268 738.076 828.268 739.094ZM833.231 757.794C833.231 754.938 830.879 752.552 827.989 752.552C825.066 752.552 822.714 754.938 822.714 757.794C822.714 760.717 825.066 763.069 827.989 763.069C830.879 763.069 833.231 760.717 833.231 757.794ZM824.73 757.794C824.73 756.046 826.175 754.568 827.989 754.568C829.77 754.568 831.215 756.046 831.215 757.794C831.215 759.608 829.77 761.053 827.989 761.053C826.175 761.053 824.73 759.608 824.73 757.794Z" fill="#333333"/>
<path fill-rule="evenodd" clip-rule="evenodd" d="M534 354.786H530V404.786H534V354.786ZM534 1058.79H530V1108.79H534V1058.79Z" fill="#FF5C32"/>
<path fill-rule="evenodd" clip-rule="evenodd" d="M163 727.786V731.786H213V727.786H163ZM868 727.786V731.786H918V727.786H868Z" fill="#FF5C32"/>
<path d="M866.425 539.304L868.425 542.768L825.124 567.768L823.124 564.304L866.425 539.304ZM255.877 891.804L257.877 895.268L214.576 920.268L212.576 916.804L255.877 891.804Z" fill="#47515C" fill-opacity="0.5"/>
<path d="M727.518 401.861L730.982 403.861L705.982 447.163L702.518 445.163L727.518 401.861ZM375.018 1012.41L378.482 1014.41L353.482 1057.71L350.018 1055.71L375.018 1012.41Z" fill="#47515C" fill-opacity="0.5"/>
<path d="M350.018 403.861L353.482 401.861L378.482 445.163L375.018 447.163L350.018 403.861ZM702.518 1014.41L705.982 1012.41L730.982 1055.71L727.518 1057.71L702.518 1014.41Z" fill="#47515C" fill-opacity="0.5"/>
<path d="M212.576 542.768L214.576 539.304L257.877 564.304L255.877 567.768L212.576 542.768ZM823.124 895.268L825.124 891.804L868.425 916.804L866.425 920.268L823.124 895.268Z" fill="#47515C" fill-opacity="0.5"/>
<path d="M902.967 630.463L904 634.32L886.646 638.97L885.613 635.114L902.967 630.463ZM193.354 820.603L194.387 824.459L177.032 829.109L175.999 825.253L193.354 820.603Z" fill="#47515C" fill-opacity="0.2"/>
<path d="M805.141 461.786L807.964 464.609L793.822 478.751L790.999 475.928L805.141 461.786ZM285.205 981.758L288.028 984.581L275.324 997.286L272.501 994.463L285.205 981.758Z" fill="#47515C" fill-opacity="0.2"/>
<path d="M635.464 365.787L639.32 366.82L634.67 384.174L630.813 383.141L635.464 365.787ZM445.325 1075.4L449.181 1076.43L444.531 1093.79L440.675 1092.75L445.325 1075.4Z" fill="#47515C" fill-opacity="0.2"/>
<path d="M440.676 366.82L444.532 365.787L449.182 383.141L445.326 384.175L440.676 366.82ZM630.815 1076.43L634.671 1075.4L639.321 1092.75L635.465 1093.79L630.815 1076.43Z" fill="#47515C" fill-opacity="0.2"/>
<path d="M272.498 465.109L275.321 462.286L288.025 474.991L285.203 477.814L272.498 465.109ZM791.97 984.582L794.793 981.759L807.498 994.463L804.675 997.286L791.97 984.582Z" fill="#47515C" fill-opacity="0.2"/>
<path d="M175.998 634.321L177.032 630.464L194.386 635.114L193.353 638.971L175.998 634.321ZM885.612 824.46L886.645 820.604L904 825.254L902.966 829.11L885.612 824.46Z" fill="#47515C" fill-opacity="0.2"/>
<defs>
<filter id="filter0_dd_1_88" x="8.99948" y="179.786" width="1083" height="1123" filterUnits="userSpaceOnUse" color-interpolation-filters="sRGB">
<feFlood flood-opacity="0" result="BackgroundImageFix"/>
<feColorMatrix in="SourceAlpha" type="matrix" values="0 0 0 0 0 0 0 0 0 0 0 0 0 0 0 0 0 0 127 0" result="hardAlpha"/>
<feOffset dx="40" dy="60"/>
<feGaussianBlur stdDeviation="60"/>
<feComposite in2="hardAlpha" operator="out"/>
<feColorMatrix type="matrix" values="0 0 0 0 0.731719 0 0 0 0 0.817024 0 0 0 0 0.929167 0 0 0 1 0"/>
<feBlend mode="normal" in2="BackgroundImageFix" result="effect1_dropShadow_1_88"/>
<feColorMatrix in="SourceAlpha" type="matrix" values="0 0 0 0 0 0 0 0 0 0 0 0 0 0 0 0 0 0 127 0" result="hardAlpha"/>
<feOffset dx="-40" dy="-60"/>
<feGaussianBlur stdDeviation="50"/>
<feComposite in2="hardAlpha" operator="out"/>
<feColorMatrix type="matrix" values="0 0 0 0 1 0 0 0 0 1 0 0 0 0 1 0 0 0 1 0"/>
<feBlend mode="normal" in2="effect1_dropShadow_1_88" result="effect2_dropShadow_1_88"/>
<feBlend mode="normal" in="SourceGraphic" in2="effect2_dropShadow_1_88" result="shape"/>
</filter>
<filter id="filter1_dii_1_88" x="207.999" y="423.786" width="705" height="705" filterUnits="userSpaceOnUse" color-interpolation-filters="sRGB">
<feFlood flood-opacity="0" result="BackgroundImageFix"/>
<feColorMatrix in="SourceAlpha" type="matrix" values="0 0 0 0 0 0 0 0 0 0 0 0 0 0 0 0 0 0 127 0" result="hardAlpha"/>
<feOffset dx="20" dy="40"/>
<feGaussianBlur stdDeviation="50"/>
<feComposite in2="hardAlpha" operator="out"/>
<feColorMatrix type="matrix" values="0 0 0 0 0.101961 0 0 0 0 0.45098 0 0 0 0 0.909804 0 0 0 0.2 0"/>
<feBlend mode="normal" in2="BackgroundImageFix" result="effect1_dropShadow_1_88"/>
<feBlend mode="normal" in="SourceGraphic" in2="effect1_dropShadow_1_88" result="shape"/>
<feColorMatrix in="SourceAlpha" type="matrix" values="0 0 0 0 0 0 0 0 0 0 0 0 0 0 0 0 0 0 127 0" result="hardAlpha"/>
<feOffset dx="20" dy="20"/>
<feGaussianBlur stdDeviation="25"/>
<feComposite in2="hardAlpha" operator="arithmetic" k2="-1" k3="1"/>
<feColorMatrix type="matrix" values="0 0 0 0 0.798056 0 0 0 0 0.847597 0 0 0 0 0.920833 0 0 0 1 0"/>
<feBlend mode="normal" in2="shape" result="effect2_innerShadow_1_88"/>
<feColorMatrix in="SourceAlpha" type="matrix" values="0 0 0 0 0 0 0 0 0 0 0 0 0 0 0 0 0 0 127 0" result="hardAlpha"/>
<feOffset dx="-20" dy="-20"/>
<feGaussianBlur stdDeviation="15"/>
<feComposite in2="hardAlpha" operator="arithmetic" k2="-1" k3="1"/>
<feColorMatrix type="matrix" values="0 0 0 0 1 0 0 0 0 1 0 0 0 0 1 0 0 0 0.7 0"/>
<feBlend mode="normal" in2="effect2_innerShadow_1_88" result="effect3_innerShadow_1_88"/>
</filter>
<filter id="filter2_dii_1_88" x="309.999" y="525.997" width="501" height="501" filterUnits="userSpaceOnUse" color-interpolation-filters="sRGB">
<feFlood flood-opacity="0" result="BackgroundImageFix"/>
<feColorMatrix in="SourceAlpha" type="matrix" values="0 0 0 0 0 0 0 0 0 0 0 0 0 0 0 0 0 0 127 0" result="hardAlpha"/>
<feOffset dx="20" dy="40"/>
<feGaussianBlur stdDeviation="40"/>
<feComposite in2="hardAlpha" operator="out"/>
<feColorMatrix type="matrix" values="0 0 0 0 0.101961 0 0 0 0 0.45098 0 0 0 0 0.909804 0 0 0 0.22 0"/>
<feBlend mode="normal" in2="BackgroundImageFix" result="effect1_dropShadow_1_88"/>
<feBlend mode="normal" in="SourceGraphic" in2="effect1_dropShadow_1_88" result="shape"/>
<feColorMatrix in="SourceAlpha" type="matrix" values="0 0 0 0 0 0 0 0 0 0 0 0 0 0 0 0 0 0 127 0" result="hardAlpha"/>
<feOffset dx="20" dy="20"/>
<feGaussianBlur stdDeviation="7.5"/>
<feComposite in2="hardAlpha" operator="arithmetic" k2="-1" k3="1"/>
<feColorMatrix type="matrix" values="0 0 0 0 0.0544444 0 0 0 0 0.196 0 0 0 0 0.408333 0 0 0 0.1 0"/>
<feBlend mode="normal" in2="shape" result="effect2_innerShadow_1_88"/>
<feColorMatrix in="SourceAlpha" type="matrix" values="0 0 0 0 0 0 0 0 0 0 0 0 0 0 0 0 0 0 127 0" result="hardAlpha"/>
<feOffset dx="-30" dy="-30"/>
<feGaussianBlur stdDeviation="20"/>
<feComposite in2="hardAlpha" operator="arithmetic" k2="-1" k3="1"/>
<feColorMatrix type="matrix" values="0 0 0 0 0.9875 0 0 0 0 0.9925 0 0 0 0 1 0 0 0 1 0"/>
<feBlend mode="normal" in2="effect2_innerShadow_1_88" result="effect3_innerShadow_1_88"/>
</filter>
</defs>
</svg>
