<svg width="1269" height="960" viewBox="0 0 1269 960" fill="none" xmlns="http://www.w3.org/2000/svg">
<g opacity="0.9" filter="url(#filter0_f_1_6)">
<ellipse cx="634.503" cy="575.316" rx="278.48" ry="267.356" fill="#FCEDD8"/>
</g>
<path d="M1162.91 904.743C1165.51 900.508 1168.05 896.242 1170.54 891.947L1102.09 855.382C1099.92 859.128 1097.7 862.848 1095.43 866.54L1162.91 904.743Z" fill="#F87227"/>
<path d="M1163.78 823.644C1164.34 822.409 1164.9 821.172 1165.45 819.933L1129.53 805.239C1129.02 806.393 1128.5 807.545 1127.98 808.696L1163.78 823.644Z" fill="#F87227"/>
<path d="M1186.96 762.895C1187.37 761.606 1187.77 760.314 1188.16 759.022L1150.69 748.492C1150.32 749.696 1149.95 750.899 1149.57 752.101L1186.96 762.895Z" fill="#F87227"/>
<path d="M1202.39 700.713C1202.63 699.387 1202.87 698.06 1203.11 696.732L1164.61 690.462C1164.39 691.699 1164.17 692.935 1163.94 694.17L1202.39 700.713Z" fill="#F87227"/>
<path d="M1210.19 636.771C1210.28 635.426 1210.35 634.082 1210.42 632.737L1171.43 630.842C1171.36 632.095 1171.29 633.347 1171.22 634.6L1210.19 636.771Z" fill="#F87227"/>
<path d="M1210.22 573.732C1210.14 572.387 1210.06 571.043 1209.97 569.699L1171 572.114C1171.09 573.366 1171.17 574.618 1171.24 575.871L1210.22 573.732Z" fill="#F87227"/>
<path d="M1187.05 447.412C1186.64 446.123 1186.23 444.834 1185.82 443.547L1148.51 454.588C1148.89 455.787 1149.27 456.987 1149.65 458.189L1187.05 447.412Z" fill="#F78235"/>
<path d="M1164.36 387.69C1163.81 386.454 1163.25 385.219 1162.68 383.987L1126.95 399.1C1127.48 400.248 1128 401.398 1128.52 402.55L1164.36 387.69Z" fill="#F78235"/>
<path d="M1134.5 330.662C1133.8 329.496 1133.09 328.333 1132.38 327.172L1098.72 346.17C1099.38 347.251 1100.04 348.335 1100.7 349.422L1134.5 330.662Z" fill="#F78235"/>
<path d="M1098.16 277.649C1097.32 276.569 1096.48 275.491 1095.63 274.417L1064.49 297.022C1065.28 298.023 1066.06 299.027 1066.84 300.033L1098.16 277.649Z" fill="#F78235"/>
<path d="M1055.61 228.953C1054.65 227.973 1053.68 226.996 1052.71 226.023L1024.5 251.938C1025.41 252.844 1026.31 253.754 1027.2 254.667L1055.61 228.953Z" fill="#F78235"/>
<path d="M953.822 146.939C952.65 146.2 951.475 145.464 950.298 144.732L929.09 176.205C930.187 176.886 931.282 177.572 932.374 178.261L953.822 146.939Z" fill="#FF9046"/>
<path d="M896.355 115.096C895.102 114.492 893.846 113.892 892.587 113.297L875.326 146.919C876.498 147.473 877.668 148.032 878.836 148.595L896.355 115.096Z" fill="#FF9046"/>
<path d="M835.449 89.8756C834.131 89.4149 832.811 88.9589 831.489 88.5076L818.405 123.824C819.636 124.245 820.866 124.67 822.094 125.099L835.449 89.8756Z" fill="#FF9046"/>
<path d="M772.253 71.6847C770.889 71.3731 769.523 71.0663 768.156 70.7644L759.402 107.294C760.675 107.576 761.948 107.862 763.219 108.152L772.253 71.6847Z" fill="#FF9046"/>
<path d="M707.504 60.6373C706.111 60.4784 704.718 60.3244 703.323 60.1754L699.002 97.4294C700.301 97.5683 701.599 97.7117 702.897 97.8597L707.504 60.6373Z" fill="#FF9046"/>
<path d="M573.802 60.5186C572.409 60.675 571.016 60.8364 569.624 61.0026L574.445 98.2001C575.742 98.0452 577.039 97.8949 578.337 97.7492L573.802 60.5186Z" fill="#FF9A4D"/>
<path d="M509.811 71.275C508.446 71.5824 507.081 71.8945 505.718 72.2115L514.908 108.643C516.178 108.347 517.45 108.056 518.722 107.77L509.811 71.275Z" fill="#FF9A4D"/>
<path d="M445.725 89.5563C444.406 90.0148 443.089 90.4779 441.773 90.9457L455.336 126.096C456.561 125.66 457.788 125.229 459.017 124.801L445.725 89.5563Z" fill="#FF9A4D"/>
<path d="M384.758 114.685C383.503 115.287 382.251 115.894 381.001 116.505L398.719 149.907C399.883 149.338 401.05 148.773 402.219 148.212L384.758 114.685Z" fill="#FF9A4D"/>
<path d="M327.33 146.375C326.157 147.113 324.986 147.855 323.818 148.601L345.446 179.809C346.534 179.114 347.625 178.423 348.718 177.736L327.33 146.375Z" fill="#FF9A4D"/>
<path d="M226.287 227.287C225.321 228.263 224.358 229.243 223.399 230.226L251.893 255.852C252.786 254.937 253.683 254.024 254.584 253.115L226.287 227.287Z" fill="#FDA74C"/>
<path d="M183.372 276.014C182.53 277.091 181.692 278.171 180.859 279.254L212.261 301.529C213.038 300.52 213.818 299.513 214.603 298.51L183.372 276.014Z" fill="#FDA74C"/>
<path d="M146.867 328.83C146.161 329.993 145.458 331.159 144.761 332.327L178.632 350.973C179.282 349.885 179.936 348.798 180.594 347.715L146.867 328.83Z" fill="#FDA74C"/>
<path d="M116.957 385.339C116.395 386.573 115.838 387.809 115.285 389.046L151.171 403.814C151.686 402.661 152.205 401.509 152.729 400.36L116.957 385.339Z" fill="#FDA74C"/>
<path d="M93.8835 445.281C93.4748 446.569 93.071 447.859 92.6721 449.15L130.105 459.808C130.476 458.605 130.852 457.403 131.233 456.203L93.8835 445.281Z" fill="#FDA74C"/>
<path d="M70.299 569.579C70.2083 570.923 70.1228 572.267 70.0424 573.612L109.022 575.759C109.097 574.507 109.177 573.254 109.261 572.003L70.299 569.579Z" fill="#FFAE5F"/>
<path d="M69.8721 633.44C69.9448 634.785 70.0227 636.13 70.1057 637.474L109.081 635.255C109.004 634.003 108.931 632.75 108.864 631.497L69.8721 633.44Z" fill="#FFAE5F"/>
<path d="M77.2134 697.083C77.4489 698.41 77.6896 699.737 77.9353 701.063L116.375 694.496C116.147 693.261 115.922 692.025 115.703 690.788L77.2134 697.083Z" fill="#FFAE5F"/>
<path d="M92.2248 759.439C92.6199 760.731 93.02 762.022 93.425 763.311L130.806 752.488C130.429 751.287 130.056 750.085 129.688 748.881L92.2248 759.439Z" fill="#FFAE5F"/>
<path d="M114.223 818.604C114.77 819.844 115.321 821.082 115.877 822.319L151.723 807.461C151.205 806.309 150.691 805.156 150.182 804L114.223 818.604Z" fill="#FFAE5F"/>
<path d="M1239.67 511.424C1238.85 506.573 1237.96 501.732 1237 496.902L1160.04 510.918C1160.87 515.13 1161.65 519.351 1162.37 523.581L1239.67 511.424Z" fill="#F57E31"/>
<path d="M1036.89 162.741C1033.02 159.519 1029.11 156.344 1025.16 153.216L975.324 211.237C978.769 213.964 982.178 216.733 985.55 219.542L1036.89 162.741Z" fill="#F7873B"/>
<path d="M647.905 19.1129C642.786 19.0165 637.665 18.9818 632.544 19.0089L632.975 94.2133C637.44 94.1897 641.905 94.2199 646.369 94.304L647.905 19.1129Z" fill="#FB9543"/>
<path d="M250.464 150.225C246.487 153.322 242.551 156.467 238.657 159.659L289.52 216.855C292.915 214.072 296.347 211.33 299.815 208.629L250.464 150.225Z" fill="#FAA048"/>
<path d="M34.7781 497.099C33.8254 501.93 32.936 506.771 32.11 511.623L109.419 523.754C110.139 519.524 110.915 515.302 111.745 511.09L34.7781 497.099Z" fill="#FBAA51"/>
<path d="M102.644 894.295C105.154 898.58 107.72 902.834 110.341 907.057L177.633 868.558C175.348 864.876 173.11 861.166 170.922 857.43L102.644 894.295Z" fill="#FDB455"/>
<defs>
<filter id="filter0_f_1_6" x="3.05176e-05" y="-48.0628" width="1269.01" height="1246.76" filterUnits="userSpaceOnUse" color-interpolation-filters="sRGB">
<feFlood flood-opacity="0" result="BackgroundImageFix"/>
<feBlend mode="normal" in="SourceGraphic" in2="BackgroundImageFix" result="shape"/>
<feGaussianBlur stdDeviation="178.011" result="effect1_foregroundBlur_1_6"/>
</filter>
</defs>
</svg>
